<svg data-name="Слой 1" xmlns="http://www.w3.org/2000/svg" viewBox="0 0 1305.1 562.48"><path d="M348.591 336.697c30.02 0 54.51 22.119 54.51 50.56 0 29.229-24.49 51.35-54.51 51.35h-11.846v61.618c0 34.759-28.439 61.619-63.2 61.619-33.97 0-62.41-26.86-62.41-61.619v-61.62H83.945c-80.579 0-105.859-58.46-63.989-116.919L220.613 38.869C260.113-17.22 336.745-.63 336.745 65.725v270.972zm-214.878 0h77.419V225.308zM875.401 271.757v18.96c0 184.068-118.5 271.758-229.1 271.758-108.229 0-228.308-87.689-228.308-271.758v-18.96C417.995 88.479 538.074 0 646.302 0c110.6 0 229.099 88.479 229.099 271.757zm-331.007 0v18.96c0 61.619 15.01 164.318 101.909 164.318s102.7-102.7 102.7-164.318v-18.96c0-61.62-15.8-164.318-102.7-164.318S544.394 210.138 544.394 271.757zM1250.591 336.697c30.02 0 54.51 22.119 54.51 50.56 0 29.229-24.49 51.35-54.51 51.35h-11.846v61.618c0 34.759-28.439 61.619-63.2 61.619-33.97 0-62.41-26.86-62.41-61.619v-61.62h-127.19c-80.579 0-105.859-58.46-63.989-116.919l200.657-282.817c39.5-56.089 116.129-39.5 116.129 26.86v270.968zm-214.878 0h77.419V225.308z"/></svg>