<svg xmlns="http://www.w3.org/2000/svg" viewBox="-281 404.9 32 32"><path d="M-269.4 405.8c-3.9 1.3-7.2 4.2-9 7.9-.6 1.3-1.1 2.6-1.4 4-.7 3.5-.2 7.1 1.4 10.3 1 2.1 2.5 3.9 4.3 5.3 1.7 1.3 3.7 2.4 5.8 2.9 2.6.7 5.5.7 8.1.1 2.4-.6 4.7-1.7 6.5-3.4 1.9-1.8 3.3-4.1 4-6.6.8-2.7.9-5.6.4-8.4h-15v6.2h8.7c-.3 2-1.5 3.8-3.2 4.9-1.1.7-2.3 1.2-3.5 1.4-1.2.2-2.5.2-3.8 0-1.3-.3-2.5-.8-3.5-1.5-1.7-1.2-3-2.9-3.6-4.9-.7-2-.7-4.2 0-6.2.5-1.4 1.3-2.7 2.3-3.8 1.3-1.3 2.9-2.3 4.7-2.6 1.5-.3 3.2-.3 4.7.2 1.3.4 2.5 1.1 3.4 2l2.9-2.9c.5-.5 1.1-1 1.5-1.6-1.5-1.4-3.2-2.5-5.1-3.2-3.3-1.3-7.2-1.3-10.6-.1z" fill="#fff"/><path d="M-269.4 405.8c3.4-1.2 7.3-1.2 10.7.1 1.9.7 3.6 1.8 5.1 3.2-.5.5-1 1-1.5 1.6l-2.9 2.9c-1-.9-2.1-1.6-3.4-2-1.5-.5-3.1-.5-4.7-.2-1.8.4-3.5 1.3-4.7 2.6-1 1.1-1.8 2.3-2.3 3.8-1.7-1.3-3.5-2.7-5.2-4 1.7-3.8 5-6.7 8.9-8z" fill="#ea4335"/><path d="M-279.8 417.6c.3-1.4.7-2.7 1.4-4 1.7 1.3 3.5 2.7 5.2 4-.7 2-.7 4.2 0 6.2-1.7 1.3-3.5 2.7-5.2 4-1.6-3-2.1-6.7-1.4-10.2z" fill="#fbbc05"/><path d="M-264.2 417.8h15c.5 2.8.4 5.7-.4 8.4-.7 2.5-2.1 4.8-4 6.6-1.7-1.3-3.4-2.6-5-3.9 1.7-1.1 2.8-2.9 3.2-4.9h-8.7c-.1-2.1-.1-4.1-.1-6.2z" fill="#4285f4"/><path d="M-278.4 427.9c1.7-1.3 3.5-2.7 5.2-4 .7 2 1.9 3.7 3.6 4.9 1.1.7 2.3 1.3 3.5 1.5 1.2.3 2.5.2 3.8 0 1.2-.2 2.5-.7 3.5-1.4 1.7 1.3 3.4 2.6 5 3.9-1.8 1.7-4.1 2.8-6.5 3.4-2.7.6-5.5.6-8.1-.1-2.1-.6-4.1-1.6-5.8-2.9-1.7-1.4-3.2-3.2-4.2-5.3z" fill="#34a853"/></svg>