<svg xmlns="http://www.w3.org/2000/svg" viewBox="-284.8 404.9 39.7 32"><path d="M-245.5 408.7c-1.4.6-3 1.1-4.6 1.3 1.7-1 2.9-2.6 3.6-4.5-1.6.9-3.3 1.6-5.1 2-1.5-1.6-3.6-2.6-5.9-2.6-4.5 0-8.1 3.6-8.1 8.1 0 .6.1 1.3.2 1.8-6.7-.3-12.7-3.6-16.7-8.4-.7 1.2-1.1 2.6-1.1 4.1 0 2.8 1.4 5.3 3.6 6.7-1.3 0-2.6-.4-3.7-1v.1c0 3.9 2.8 7.2 6.5 7.9-.7.2-1.4.3-2.1.3-.5 0-1-.1-1.5-.1 1 3.2 4 5.5 7.5 5.6-2.8 2.2-6.2 3.5-10 3.5-.7 0-1.3 0-1.9-.1 3.6 2.3 7.8 3.6 12.4 3.6 14.9 0 23-12.3 23-23v-1c1.5-1.3 2.8-2.7 3.9-4.3z" fill="#55acee"/></svg>